<?xml version="1.0" encoding="iso-8859-1"?>
<!-- Generator: Adobe Illustrator 19.0.0, SVG Export Plug-In . SVG Version: 6.00 Build 0)  -->
<svg version="1.1" id="Layer_1" xmlns="http://www.w3.org/2000/svg" xmlns:xlink="http://www.w3.org/1999/xlink" x="0px" y="0px"
	 viewBox="0 0 512 512" style="enable-background:new 0 0 512 512;" xml:space="preserve">
<g>
	<g>
		<polygon points="166.185,132.13 189.641,204.326 227.597,176.75 		"/>
	</g>
</g>
<g>
	<g>
		<polygon points="256,197.386 200.489,237.717 221.696,302.973 290.304,302.973 311.511,237.717 		"/>
	</g>
</g>
<g>
	<g>
		<polygon points="172.087,258.353 110.674,302.973 186.587,302.973 		"/>
	</g>
</g>
<g>
	<g>
		<polygon points="232.544,336.364 256,408.559 279.456,336.364 		"/>
	</g>
</g>
<g>
	<g>
		<path d="M256,0C114.843,0,0,114.843,0,256s114.843,256,256,256s256-114.843,256-256S397.157,0,256,0z M452.711,336.364H314.565
			l-42.685,131.38c-2.239,6.881-8.647,11.538-15.881,11.538c-7.234,0-13.641-4.658-15.881-11.538l-42.685-131.38H59.288
			c-7.234,0-13.641-4.658-15.881-11.538c-2.234-6.875,0.217-14.413,6.065-18.664l111.766-81.201l-42.69-131.38
			c-2.234-6.875,0.217-14.413,6.065-18.664c5.859-4.25,13.772-4.25,19.631,0L256,156.114l111.755-81.195
			c5.909-4.287,13.822-4.214,19.631,0c5.848,4.25,8.299,11.788,6.065,18.664l-42.69,131.38l111.766,81.2
			c5.848,4.25,8.299,11.788,6.065,18.664C466.353,331.707,459.945,336.364,452.711,336.364z"/>
	</g>
</g>
<g>
	<g>
		<polygon points="284.403,176.75 322.359,204.326 345.815,132.13 		"/>
	</g>
</g>
<g>
	<g>
		<polygon points="339.913,258.353 325.413,302.973 401.326,302.973 		"/>
	</g>
</g>
<g>
</g>
<g>
</g>
<g>
</g>
<g>
</g>
<g>
</g>
<g>
</g>
<g>
</g>
<g>
</g>
<g>
</g>
<g>
</g>
<g>
</g>
<g>
</g>
<g>
</g>
<g>
</g>
<g>
</g>
</svg>
